<?xml version="1.0" standalone="no"?>
<!DOCTYPE svg PUBLIC "-//W3C//DTD SVG 20010904//EN"
 "http://www.w3.org/TR/2001/REC-SVG-20010904/DTD/svg10.dtd">
<svg version="1.0" xmlns="http://www.w3.org/2000/svg"
 width="225.000000pt" height="225.000000pt" viewBox="0 0 225.000000 225.000000"
 preserveAspectRatio="xMidYMid meet">

<g transform="translate(0.000000,225.000000) scale(0.100000,-0.100000)"
fill="#000000" stroke="none">
<path d="M1200 1166 l-694 -504 -53 -163 c-28 -90 -50 -166 -47 -168 2 -3 21
11 42 31 151 144 1083 959 1197 1047 25 19 -244 -258 -622 -639 l-292 -295
-31 -129 c-17 -71 -29 -131 -27 -133 2 -2 43 44 92 102 64 79 92 105 104 100
73 -29 146 -39 266 -39 112 1 143 5 220 28 277 84 477 289 557 571 18 64 22
105 22 205 0 139 -19 225 -75 348 l-30 67 43 37 c24 21 39 37 33 37 -5 0 -323
-226 -705 -503z"/>
<path d="M331 1294 c0 -11 3 -14 6 -6 3 7 2 16 -1 19 -3 4 -6 -2 -5 -13z"/>
<path d="M321 1194 c0 -11 3 -14 6 -6 3 7 2 16 -1 19 -3 4 -6 -2 -5 -13z"/>
<path d="M840 1140 c-9 -6 -10 -10 -3 -10 6 0 15 5 18 10 8 12 4 12 -15 0z"/>
<path d="M100 1050 c-9 -6 -10 -10 -3 -10 6 0 15 5 18 10 8 12 4 12 -15 0z"/>
<path d="M158 1033 c7 -3 16 -2 19 1 4 3 -2 6 -13 5 -11 0 -14 -3 -6 -6z"/>
</g>
</svg>
